<svg width="490" height="362" viewBox="0 0 490 362" fill="none" xmlns="http://www.w3.org/2000/svg">
<path d="M122.825 330.663C140.625 350.063 166.025 361.263 192.325 361.263H409.225C453.425 361.263 489.425 325.263 489.425 281.063V80.363C489.425 36.163 453.425 0.162994 409.225 0.162994H192.325C165.925 0.162994 140.625 11.263 122.825 30.763L11.025 152.463C-3.675 168.563 -3.675 192.763 11.025 208.863L122.825 330.663ZM29.125 169.063L140.925 47.263C154.125 32.863 172.925 24.663 192.425 24.663H409.325C440.025 24.663 465.025 49.663 465.025 80.363V280.963C465.025 311.663 440.025 336.663 409.325 336.663H192.325C172.825 336.663 154.025 328.463 140.825 314.063L29.125 192.263C23.025 185.663 23.025 175.663 29.125 169.063Z" fill="black"/>
<path d="M225.425 245.763C227.825 248.163 230.925 249.363 234.125 249.363C237.325 249.363 240.425 248.163 242.825 245.763L290.625 197.963L338.425 245.763C340.825 248.163 343.925 249.363 347.125 249.363C350.325 249.363 353.425 248.163 355.825 245.763C360.625 240.963 360.625 233.263 355.825 228.463L307.925 180.663L355.725 132.863C360.525 128.063 360.525 120.363 355.725 115.563C350.925 110.763 343.225 110.763 338.425 115.563L290.625 163.363L242.825 115.563C238.025 110.763 230.325 110.763 225.525 115.563C220.725 120.363 220.725 128.063 225.525 132.863L273.325 180.663L225.525 228.463C220.725 233.263 220.725 240.962 225.425 245.763Z" fill="black"/>
</svg>
